<?xml version="1.0" standalone="no"?>
<!DOCTYPE svg PUBLIC "-//W3C//DTD SVG 20010904//EN"
 "http://www.w3.org/TR/2001/REC-SVG-20010904/DTD/svg10.dtd">
<svg version="1.0" xmlns="http://www.w3.org/2000/svg"
 width="512.000000pt" height="512.000000pt" viewBox="0 0 512.000000 512.000000"
 preserveAspectRatio="xMidYMid meet">

<g transform="translate(0.000000,512.000000) scale(0.100000,-0.100000)"
fill="#3b2fe4" stroke="none">
<path d="M403 5105 c-191 -42 -348 -200 -389 -394 -21 -99 -21 -4203 0 -4302
42 -196 198 -353 393 -394 102 -22 4204 -22 4306 0 195 41 351 198 393 394 21
100 21 4203 -1 4304 -41 195 -198 351 -394 393 -97 20 -4214 19 -4308 -1z
m1504 -980 c98 -29 174 -123 220 -271 26 -85 24 -304 -5 -434 -51 -236 -162
-438 -345 -627 l-89 -92 227 -3 227 -3 24 -28 c19 -23 24 -39 24 -85 -1 -111
-60 -184 -180 -224 -60 -20 -90 -22 -369 -26 l-303 -4 5 -271 c6 -284 14 -356
57 -470 33 -87 76 -137 151 -175 58 -30 75 -34 146 -34 146 -1 237 43 389 185
l81 76 7 93 c18 251 44 421 96 615 39 151 64 205 115 252 55 50 123 71 232 71
77 0 86 -2 110 -26 23 -24 25 -31 20 -82 -4 -32 -27 -140 -52 -242 -47 -189
-85 -387 -85 -443 0 -24 11 -6 44 76 128 313 331 568 532 668 81 40 96 44 180
47 120 6 169 -14 210 -84 28 -47 29 -54 27 -164 -1 -94 -10 -155 -47 -334 -25
-121 -44 -222 -41 -224 3 -3 5 1 5 9 0 25 127 275 183 361 188 284 402 438
610 438 86 0 145 -25 189 -81 56 -70 56 -164 -2 -544 -47 -310 -61 -447 -69
-685 -8 -233 -16 -275 -59 -324 -33 -37 -92 -56 -180 -56 -113 0 -163 25 -206
105 -34 64 -28 246 19 570 43 297 50 441 23 459 -26 16 -64 -11 -125 -89 -128
-167 -255 -459 -333 -766 -57 -221 -108 -278 -250 -279 -114 0 -175 53 -221
191 -21 65 -24 91 -23 219 0 80 9 201 18 270 30 217 46 410 36 436 -15 38 -53
31 -100 -17 -107 -111 -235 -394 -327 -724 -75 -274 -103 -329 -180 -361 -42
-18 -144 -18 -187 0 -44 18 -92 79 -112 141 -8 27 -17 56 -20 63 -2 8 -34 -10
-86 -49 -163 -122 -298 -169 -486 -169 -127 0 -234 21 -331 66 -105 48 -221
166 -279 284 -95 193 -126 374 -125 736 l1 262 -111 4 c-137 5 -168 18 -192
83 -22 56 -16 159 11 206 39 65 61 74 209 77 l133 4 12 71 c71 437 238 869
428 1109 162 204 352 293 519 243z"/>
<path d="M1671 3755 c-98 -112 -191 -407 -265 -847 -13 -78 -23 -145 -21 -147
7 -6 144 140 196 208 64 85 151 261 185 376 31 109 44 286 25 362 -23 90 -67
108 -120 48z"/>
</g>
</svg>
